STARTFONT 2.1
FONT -Monotype-Century Schoolbook-Regular-I-Normal--36-360-75-75-P-195-iso8859-9
SIZE 36 75 75
FONTBOUNDINGBOX 46 46 -6 -8

STARTPROPERTIES 24
FOUNDRY "Monotype"
FAMILY_NAME "Century Schoolbook"
WEIGHT_NAME "Regular"
SLANT "I"
SETWIDTH_NAME "Normal"
ADD_STYLE_NAME ""
PIXEL_SIZE 36
POINT_SIZE 360
RESOLUTION_X 75
RESOLUTION_Y 75
SPACING "P"
AVERAGE_WIDTH 195
CHARSET_REGISTRY "iso8859"
CHARSET_ENCODING "9"
FACE_NAME "Century Schoolbook Italic ISO Latin5"
_DEC_DEVICE_FONTNAMES "PS=centuryschoolbook-it-lat5"
COPYRIGHT "Copyright (c) 1993 Monotype Typography Ltd."
CAP_HEIGHT 33
X_HEIGHT 21
WEIGHT 10
QUAD_WIDTH 22
DEFAULT_CHAR 160
FONT_DESCENT 8
FONT_ASCENT 38
ENDPROPERTIES

CHARS 191

STARTCHAR space
ENCODING 32
SWIDTH 278 0
DWIDTH 11 0
BBX 0 0 0 0
BITMAP
ENDCHAR

STARTCHAR exclam
ENCODING 33
SWIDTH 333 0
DWIDTH 13 0
BBX 11 29 2 0
BITMAP
00E0
00E0
01E0
01E0
01E0
01C0
01C0
03C0
0380
0380
0300
0300
0600
0600
0600
0400
0400
0C00
0800
0800
1800
0000
0000
0000
7000
F800
F800
7000
2000
ENDCHAR

STARTCHAR quotedbl
ENCODING 34
SWIDTH 400 0
DWIDTH 15 0
BBX 12 11 6 15
BITMAP
3870
78F0
78E0
70E0
71E0
E1C0
E1C0
C180
C180
8100
8100
ENDCHAR

STARTCHAR numbersign
ENCODING 35
SWIDTH 606 0
DWIDTH 23 0
BBX 21 28 3 0
BITMAP
00C0E0
01C0E0
01C0C0
0180C0
0180C0
0181C0
0381C0
030180
FFFFF8
FFFDF8
030380
070380
060300
060300
060300
060700
0E0700
0E0600
FFFFF8
FFF7F8
0C0E00
1C0E00
1C0C00
180C00
180C00
181C00
381C00
381800
ENDCHAR

STARTCHAR dollar
ENCODING 36
SWIDTH 556 0
DWIDTH 21 0
BBX 19 33 3 -5
BITMAP
000600
000600
007F00
01CD80
030C40
0308E0
0608E0
0619E0
0611C0
071000
079000
07F000
03E000
01F000
00F800
007C00
007C00
00DE00
00CF00
208F00
708700
F98700
F10700
E10600
630E00
630C00
323800
1FF000
060000
060000
040000
040000
0C0000
ENDCHAR

STARTCHAR percent
ENCODING 37
SWIDTH 833 0
DWIDTH 32 0
BBX 26 27 5 0
BITMAP
07000600
18800C00
30C00800
70C01800
60C03000
E0C06000
E1C04000
E1C0C000
C1818000
C3810000
C3830000
C3060000
66040000
380C0700
00181880
001030C0
003070C0
006060C0
0040E0C0
00C0E1C0
0180E1C0
0100C180
0300C380
0600C380
0C00C300
08006600
18003800
ENDCHAR

STARTCHAR ampersand
ENCODING 38
SWIDTH 852 0
DWIDTH 32 0
BBX 28 28 3 0
BITMAP
0007E000
000E3000
001C1800
00381C00
00381C00
00781C00
00781C00
00783800
00787000
0078E000
007B8000
003E0000
01FC0000
07BC3FF0
0E3C07C0
3C1E0380
781E0300
781E0600
F80F0400
F00F0C00
F00F9800
F007B000
F807E030
F803C060
7C03F0C0
3F06FF80
1FF8FF00
07C03C00
ENDCHAR

STARTCHAR quoteright
ENCODING 39
SWIDTH 204 0
DWIDTH 8 0
BBX 7 10 4 18
BITMAP
1C
3E
3E
3E
0E
0C
1C
38
E0
40
ENDCHAR

STARTCHAR parenleft
ENCODING 40
SWIDTH 333 0
DWIDTH 13 0
BBX 15 35 2 -7
BITMAP
000E
0018
0030
00E0
01C0
0380
0700
0700
0E00
1E00
1C00
3C00
3800
7800
7000
7000
F000
F000
F000
E000
E000
E000
E000
E000
E000
E000
6000
7000
7000
3000
3000
1800
1800
0800
0400
ENDCHAR

STARTCHAR parenright
ENCODING 41
SWIDTH 333 0
DWIDTH 13 0
BBX 15 35 -3 -7
BITMAP
0040
0060
0030
0030
0018
0018
001C
000C
000C
000E
000E
000E
000E
000E
000E
000E
000E
001E
001E
001E
001C
003C
003C
0038
0078
0070
00E0
01E0
01C0
0380
0700
0E00
0C00
1800
E000
ENDCHAR

STARTCHAR asterisk
ENCODING 42
SWIDTH 500 0
DWIDTH 19 0
BBX 16 14 6 14
BITMAP
0180
03C0
03C0
0180
6186
F99F
FC3F
7FFE
0180
0340
0E70
1E78
1E78
1C38
ENDCHAR

STARTCHAR plus
ENCODING 43
SWIDTH 606 0
DWIDTH 23 0
BBX 20 20 3 3
BITMAP
006000
006000
006000
006000
006000
006000
006000
006000
006000
FFFFF0
FFFFF0
006000
006000
006000
006000
006000
006000
006000
006000
006000
ENDCHAR

STARTCHAR comma
ENCODING 44
SWIDTH 278 0
DWIDTH 11 0
BBX 7 10 0 -6
BITMAP
1C
3E
3E
3E
0E
0C
0C
38
E0
40
ENDCHAR

STARTCHAR minus
ENCODING 45
SWIDTH 606 0
DWIDTH 23 0
BBX 21 2 3 12
BITMAP
FFFFF8
FFFFF8
ENDCHAR

STARTCHAR period
ENCODING 46
SWIDTH 278 0
DWIDTH 11 0
BBX 5 5 2 0
BITMAP
70
F8
F8
70
20
ENDCHAR

STARTCHAR slash
ENCODING 47
SWIDTH 606 0
DWIDTH 23 0
BBX 17 28 4 -1
BITMAP
000180
000380
000300
000700
000E00
000C00
001C00
001800
003800
003000
007000
006000
00E000
00C000
01C000
018000
038000
030000
070000
060000
0E0000
0C0000
1C0000
380000
300000
700000
600000
E00000
ENDCHAR

STARTCHAR zero
ENCODING 48
SWIDTH 556 0
DWIDTH 21 0
BBX 18 26 3 0
BITMAP
007E00
01C700
038180
070180
060180
0E01C0
1E01C0
1C01C0
3C01C0
3C03C0
3803C0
7803C0
780380
700780
F00780
F00780
F00700
E00F00
E00E00
E00E00
E01C00
601800
603800
607000
30E000
1F8000
ENDCHAR

STARTCHAR one
ENCODING 49
SWIDTH 556 0
DWIDTH 21 0
BBX 14 26 4 0
BITMAP
000C
003C
07F8
07F8
0078
0070
0070
0070
0070
00E0
00E0
00E0
01E0
01C0
01C0
01C0
03C0
0380
0380
0380
0700
0700
0700
0F00
1F00
FFF0
ENDCHAR

STARTCHAR two
ENCODING 50
SWIDTH 556 0
DWIDTH 21 0
BBX 21 27 1 0
BITMAP
001F00
00FFC0
0181E0
0300F0
060078
060078
070078
07C078
07C078
07C0F0
03C0F0
0001E0
0003C0
000780
000F00
003C00
007000
00E000
018000
030000
0E00C0
1C0180
380180
200300
7FFF00
FFFF00
FFFE00
ENDCHAR

STARTCHAR three
ENCODING 51
SWIDTH 556 0
DWIDTH 21 0
BBX 19 27 3 0
BITMAP
00FE00
018780
0301C0
0701C0
0781E0
0781E0
0781E0
0001E0
0003C0
000380
000F00
003C00
07E000
023800
001C00
000E00
000F00
700F00
F00F00
F00F00
F00F00
E01E00
C01E00
603C00
707800
1FF000
078000
ENDCHAR

STARTCHAR four
ENCODING 52
SWIDTH 556 0
DWIDTH 21 0
BBX 19 27 3 0
BITMAP
000060
0000C0
0001C0
0003C0
000780
000F80
001B80
003780
007700
00E700
01C700
038E00
070E00
0E0E00
1C1E00
381C00
701C00
C01C00
FFFF80
FFFF80
003800
003800
007800
007000
007000
01F800
07FE00
ENDCHAR

STARTCHAR five
ENCODING 53
SWIDTH 556 0
DWIDTH 21 0
BBX 19 26 3 0
BITMAP
01C060
01FFC0
01FF00
037C00
020000
020000
060000
040000
0C0000
09E000
0FF800
1C1C00
100E00
100E00
000F00
000F00
000F00
000F00
700F00
F81E00
F81E00
F03C00
C03C00
C07800
71E000
3F8000
ENDCHAR

STARTCHAR six
ENCODING 54
SWIDTH 556 0
DWIDTH 21 0
BBX 19 26 4 0
BITMAP
003F80
00F1C0
01C1E0
0383E0
0703E0
0F01C0
0E0000
1E0000
1C0000
3C0000
3CF000
7BFC00
7B1E00
7C0E00
F80F00
F80F00
F80F00
F00F00
F00F00
F01E00
701E00
701C00
703800
387000
1CE000
0FC000
ENDCHAR

STARTCHAR seven
ENCODING 55
SWIDTH 556 0
DWIDTH 21 0
BBX 18 26 6 0
BITMAP
1FFFC0
3FFF80
3FFB00
380700
600600
600C00
401800
C03000
807000
006000
00C000
01C000
018000
038000
070000
070000
0E0000
0E0000
1E0000
1C0000
3C0000
3C0000
3C0000
7C0000
780000
780000
ENDCHAR

STARTCHAR eight
ENCODING 56
SWIDTH 556 0
DWIDTH 21 0
BBX 19 26 3 0
BITMAP
007F00
01C3C0
0380C0
0300E0
060060
060060
060060
0700E0
0781C0
078380
03E700
01FC00
00F800
07FC00
1E3E00
381E00
700F00
600F00
E00700
C00700
C00700
C00600
E00E00
701C00
387800
0FE000
ENDCHAR

STARTCHAR nine
ENCODING 57
SWIDTH 556 0
DWIDTH 21 0
BBX 19 26 3 0
BITMAP
003F00
00E380
03C1C0
0380C0
0700E0
0F00E0
0F00E0
1E00E0
1E01E0
1E01E0
1E03E0
1E03E0
0E07E0
0F0DC0
07FBC0
01E3C0
000780
000780
000700
000F00
780E00
F81C00
F83800
F07000
71E000
3F8000
ENDCHAR

STARTCHAR colon
ENCODING 58
SWIDTH 278 0
DWIDTH 11 0
BBX 9 18 1 0
BITMAP
0700
0F80
0F80
0700
0200
0000
0000
0000
0000
0000
0000
0000
0000
2000
7800
F800
7000
2000
ENDCHAR

STARTCHAR semicolon
ENCODING 59
SWIDTH 278 0
DWIDTH 11 0
BBX 11 24 0 -6
BITMAP
00C0
03E0
03E0
01E0
0080
0000
0000
0000
0000
0000
0000
0000
0000
0000
1C00
3E00
3E00
3E00
0600
0C00
0C00
1800
F000
4000
ENDCHAR

STARTCHAR less
ENCODING 60
SWIDTH 606 0
DWIDTH 23 0
BBX 21 20 3 3
BITMAP
000008
000038
0001F8
0007E0
001F80
00FE00
03F000
0FC000
7E0000
E80000
F00000
7E0000
1F8000
07F000
00FC00
003F80
0007E0
0001F8
000078
000008
ENDCHAR

STARTCHAR equal
ENCODING 61
SWIDTH 606 0
DWIDTH 23 0
BBX 21 11 3 7
BITMAP
FFFFF8
FFFFF8
000000
000000
000000
000000
000000
000000
000000
FFFFF8
FFFFF8
ENDCHAR

STARTCHAR greater
ENCODING 62
SWIDTH 606 0
DWIDTH 23 0
BBX 21 20 3 3
BITMAP
800000
E00000
F80000
7E0000
0FC000
03F000
00FE00
001F80
0007E0
000078
0000F8
0003F0
001FC0
007E00
03F800
0FC000
7F0000
FC0000
E00000
800000
ENDCHAR

STARTCHAR question
ENCODING 63
SWIDTH 444 0
DWIDTH 17 0
BBX 12 28 4 0
BITMAP
0780
1860
3020
2030
4030
4030
4070
40F0
01E0
07C0
0F80
1E00
1C00
3800
7000
6000
6180
6100
3200
1C00
0000
0000
0000
7000
7000
F800
F800
2000
ENDCHAR

STARTCHAR at
ENCODING 64
SWIDTH 747 0
DWIDTH 28 0
BBX 27 29 3 -1
BITMAP
001FE000
00E03800
03800C00
06000300
0C000100
18000080
10000080
300738C0
2018B040
60307040
60707040
40606040
C0C06040
C0C0E040
C1C0C0C0
C181C080
C381C080
C383C100
C3858300
43898600
61F1CC20
60E1F060
30000040
10000080
18000180
0C000200
07000C00
01C07000
007FC000
ENDCHAR

STARTCHAR A
ENCODING 65
SWIDTH 704 0
DWIDTH 27 0
BBX 28 28 -2 0
BITMAP
00000800
00001C00
00003C00
00003C00
00007C00
0000FC00
0000DC00
0001BC00
00019E00
00031E00
00061E00
00061E00
000C1E00
00181E00
00181E00
00300E00
00300F00
007FFF00
00FFFF00
00C00F00
01800F00
01000F00
03000F00
06000780
06000780
0E000780
3F000FC0
FFC07FF0
ENDCHAR

STARTCHAR B
ENCODING 66
SWIDTH 722 0
DWIDTH 27 0
BBX 27 28 0 0
BITMAP
03FFFF00
003E0F80
003C03C0
003C01E0
007801E0
007801E0
007801E0
007801E0
00F003E0
00F003C0
00F00780
00F00F00
01E03C00
01FFF000
01E01E00
01E00F00
03E00780
03C003C0
03C003C0
03C003C0
07C003C0
078003C0
078007C0
0F800780
0F800F80
0F001F00
1F807C00
FFFFF000
ENDCHAR

STARTCHAR C
ENCODING 67
SWIDTH 722 0
DWIDTH 27 0
BBX 25 28 4 0
BITMAP
001FC000
00F83180
01E01B80
03C00F80
07800700
0F000700
1E000700
3E000700
3C000200
7C000200
7C000200
78000000
F8000000
F8000000
F8000000
F0000000
F0000000
F0000000
F0000000
F0000400
F0000C00
78000800
78001800
3C003000
1E006000
0F01C000
07FF0000
00780000
ENDCHAR

STARTCHAR D
ENCODING 68
SWIDTH 778 0
DWIDTH 30 0
BBX 30 28 0 0
BITMAP
03FFFF00
003E07C0
001E01E0
003C0070
003C0078
003C0038
003C0038
0078003C
0078003C
0078003C
0078003C
00F0003C
00F0003C
00F0003C
00F0007C
01E0007C
01E00078
01E000F8
01E000F8
03C000F0
03C001F0
03C001E0
07C003C0
078007C0
07800F80
07801E00
0F807C00
FFFFE000
ENDCHAR

STARTCHAR E
ENCODING 69
SWIDTH 722 0
DWIDTH 27 0
BBX 27 28 1 0
BITMAP
07FFFFE0
003C03E0
007C01E0
007800E0
007800C0
007800C0
00F800C0
00F000C0
00F03080
00F03000
01E06000
01E06000
01E1E000
01FFE000
03C3C000
03C1C000
03C0C000
03C0C000
07808080
07808180
07818100
07800300
0F000700
0F000600
0F000E00
0F003E00
1F00FE00
FFFFFC00
ENDCHAR

STARTCHAR F
ENCODING 70
SWIDTH 667 0
DWIDTH 25 0
BBX 29 28 0 0
BITMAP
03FFFFF8
003E01F0
003C0070
003C0070
003C0030
00780030
00780030
00780020
00780C20
00F00800
00F01800
00F03800
00F0F800
01FFF000
01E0F000
01E07000
01E07000
03C02000
03C02000
03C06000
03C06000
07800000
07800000
07800000
0F800000
0F000000
1F800000
FFF80000
ENDCHAR

STARTCHAR G
ENCODING 71
SWIDTH 778 0
DWIDTH 30 0
BBX 26 28 3 0
BITMAP
001FE000
007838C0
00E00E80
03C00780
07800780
0F000380
0F000380
1E000380
3E000100
3C000100
7C000000
78000000
78000000
F8000000
F8000000
F001FFC0
F0001F00
F0001E00
F0001E00
F0003C00
F0003C00
70003C00
78007C00
78007800
3C00E800
1E01D800
0F871000
03FC1000
ENDCHAR

STARTCHAR H
ENCODING 72
SWIDTH 833 0
DWIDTH 32 0
BBX 34 28 1 0
BITMAP
03FFC3FFC0
007C007C00
007C007C00
0078007800
0078007800
0078007800
00F000F800
00F000F000
00F000F000
00F000F000
01E001E000
01E001E000
01FFFFE000
01FFFFE000
03C003C000
03C003C000
03C003C000
03C003C000
0780078000
0780078000
0780078000
0F80078000
0F000F0000
0F000F0000
0F000F0000
1F000F0000
3F003F0000
FFF1FFE000
ENDCHAR

STARTCHAR I
ENCODING 73
SWIDTH 407 0
DWIDTH 15 0
BBX 19 28 0 0
BITMAP
03FFE0
003F00
001E00
003C00
003C00
003C00
003C00
007800
007800
007800
007800
00F000
00F000
00F000
00F000
01E000
01E000
01E000
01E000
03C000
03C000
03C000
038000
078000
078000
078000
0F8000
FFF800
ENDCHAR

STARTCHAR J
ENCODING 74
SWIDTH 611 0
DWIDTH 23 0
BBX 25 28 1 0
BITMAP
0007FF80
00007C00
00007800
00007800
00007800
00007800
0000F000
0000F000
0000F000
0001F000
0001E000
0001E000
0001E000
0003C000
0003C000
0003C000
3C03C000
7E078000
7E078000
FE078000
DC0F0000
800F0000
800F0000
C01E0000
403C0000
607C0000
3FF00000
07C00000
ENDCHAR

STARTCHAR K
ENCODING 75
SWIDTH 741 0
DWIDTH 28 0
BBX 33 28 -1 0
BITMAP
01FFE3FF80
003E00FC00
003C007000
003C00E000
003C01C000
003C038000
0078070000
00780C0000
0078180000
0078700000
00F0E00000
00F1C00000
00F3E00000
00F7E00000
01EDE00000
01F8F00000
01F0F00000
03E0F80000
03C0780000
03C07C0000
03C03C0000
07C03E0000
07801E0000
07801E0000
07800F0000
0F000F0000
0F800FC000
FFF8FFF800
ENDCHAR

STARTCHAR L
ENCODING 76
SWIDTH 667 0
DWIDTH 25 0
BBX 24 28 1 0
BITMAP
07FFC0
007C00
007800
007800
007800
007800
00F000
00F000
00F000
00F000
01E000
01E000
01E000
01E000
03C000
03C000
03C000
03C000
078003
078002
078006
0F8006
0F000E
0F001C
0F003C
1F007C
3F01FC
FFFFF8
ENDCHAR

STARTCHAR M
ENCODING 77
SWIDTH 944 0
DWIDTH 36 0
BBX 40 28 0 0
BITMAP
03FF0001FF
003F0003F0
00370002F0
00370007E0
0037000DE0
0027800DE0
00678019E0
00678033C0
00678033C0
00478063C0
00C78063C0
00C780C780
00C7818780
0083818780
0183830780
0183830F00
0183C60F00
0303CC0F00
0303CC0F00
0303D81E00
0303D81E00
0603F01E00
0603E01C00
0603E03C00
0E01C03C00
1E01C03C00
3F81807C00
FFE107FFC0
ENDCHAR

STARTCHAR N
ENCODING 78
SWIDTH 815 0
DWIDTH 31 0
BBX 34 28 0 0
BITMAP
03FE00FFC0
007E001F00
003F000E00
003F000C00
0037000C00
0027800C00
0067800C00
0067C01800
0063C01800
0043E01800
00C1E01000
00C1E03000
00C0F03000
0180F03000
0180782000
0180786000
01807C6000
03003C6000
03003C4000
03001EC000
03001EC000
06000FC000
06000F8000
0600078000
0E00078000
0E00078000
3F80030000
FFE0030000
ENDCHAR

STARTCHAR O
ENCODING 79
SWIDTH 778 0
DWIDTH 30 0
BBX 26 28 3 0
BITMAP
001FF000
00783C00
00E00E00
03C00700
07800780
0F000380
1F000380
1E0003C0
3E0003C0
3C0003C0
7C0003C0
780003C0
780003C0
F80007C0
F80007C0
F0000780
F0000780
F0000F80
F0000F00
F0001F00
F0001E00
70003C00
70003C00
38007800
3800F000
1C01C000
0F0F8000
03FC0000
ENDCHAR

STARTCHAR P
ENCODING 80
SWIDTH 667 0
DWIDTH 25 0
BBX 27 28 0 0
BITMAP
03FFFC00
007E0F80
003C03C0
003C01C0
007801E0
007801E0
007801E0
007801E0
00F001E0
00F003E0
00F003C0
01E00780
01E00F00
01E07E00
01FFF000
03C00000
03C00000
03C00000
03C00000
07800000
07800000
07800000
07800000
0F000000
0F000000
0F000000
1F000000
FFF00000
ENDCHAR

STARTCHAR Q
ENCODING 81
SWIDTH 778 0
DWIDTH 30 0
BBX 26 35 4 -7
BITMAP
001FF000
00783C00
01E00E00
03C00700
07800700
0F000380
1E000380
1E0003C0
3C0003C0
3C0003C0
780003C0
780003C0
780003C0
F80007C0
F00007C0
F0000780
F0000F80
F0000F80
F0FC0F00
F38E1F00
F2061E00
74073C00
74033C00
7C037800
3C03F000
1E07C000
0F0F8000
03FF8000
00078000
00078000
00078600
0007C400
0007CC00
0003F800
0001F000
ENDCHAR

STARTCHAR R
ENCODING 82
SWIDTH 741 0
DWIDTH 28 0
BBX 28 28 0 0
BITMAP
03FFFF00
003F07C0
001E01E0
003C00E0
003C00F0
003C00F0
003C00F0
007800F0
007801F0
007801E0
007803E0
00F007C0
00F01F00
00FFF000
01F07000
01E03800
01E01C00
01E01C00
03E01C00
03C01C00
03C01C00
03C03C00
07803E00
07803E20
07803E60
07801E40
0F801F80
FFF80F00
ENDCHAR

STARTCHAR S
ENCODING 83
SWIDTH 667 0
DWIDTH 25 0
BBX 25 28 1 0
BITMAP
003FC000
00F0F180
01C03F00
03801F00
03000F00
07000700
07000600
07000600
07800600
07C00600
07E00000
03FC0000
01FF8000
00FFE000
003FF000
000FF800
0001FC00
30007C00
30003C00
30001C00
30001C00
30001C00
78001C00
78003800
7C007000
6E00E000
C3C3C000
00FF0000
ENDCHAR

STARTCHAR T
ENCODING 84
SWIDTH 685 0
DWIDTH 26 0
BBX 27 28 3 0
BITMAP
0FFFFFE0
1F0F87C0
1E0781C0
1C0F01C0
380F01C0
300F0180
300F0180
601E0180
401E0180
C01E0180
001C0000
003C0000
003C0000
003C0000
00780000
00780000
00780000
00780000
00F00000
00F00000
00F00000
00F00000
01E00000
01E00000
01E00000
01E00000
03E00000
7FFE0000
ENDCHAR

STARTCHAR U
ENCODING 85
SWIDTH 815 0
DWIDTH 31 0
BBX 29 28 5 0
BITMAP
FFF81FF8
0F8007E0
0F0001C0
0F000180
0F000180
0F000100
1E000300
1E000300
1E000300
3C000200
3C000600
3C000600
3C000600
78000400
78000C00
78000C00
78000C00
F0000800
F0001800
F0001800
F0001000
F0003000
F0006000
78006000
7C01C000
3E038000
0FFE0000
01F00000
ENDCHAR

STARTCHAR V
ENCODING 86
SWIDTH 704 0
DWIDTH 27 0
BBX 28 28 4 0
BITMAP
FFE03FF0
3F0007C0
1E000380
1E000300
1E000600
1E000600
0F000C00
0F001800
0F001800
0F003000
0F002000
0F006000
0780C000
0780C000
07818000
07830000
07830000
07860000
03C60000
03CC0000
03D80000
03D80000
03F00000
03E00000
01E00000
01C00000
01C00000
01800000
ENDCHAR

STARTCHAR W
ENCODING 87
SWIDTH 926 0
DWIDTH 35 0
BBX 35 28 5 0
BITMAP
FF8FFE1FE0
7C01F00780
3C01E00700
3C01E00600
3C01E00600
3C01E00C00
3C01E00C00
3C03E01800
3C02F01800
1C06F03000
1C04F03000
1E0CF06000
1E08F06000
1E18F0C000
1E30F0C000
1E30F18000
1E60F10000
1E60730000
1EC0720000
1EC0760000
0F807C0000
0F807C0000
0F00780000
0F00780000
0E00700000
0E00700000
0C00600000
0C00600000
ENDCHAR

STARTCHAR X
ENCODING 88
SWIDTH 704 0
DWIDTH 27 0
BBX 32 28 -1 0
BITMAP
03FFC7FF
007E00F8
003C00F0
003C00E0
001E01C0
001E0380
001F0300
000F0600
000F0C00
00079800
0007B000
0007E000
0003C000
0001C000
0003E000
0007E000
000EF000
001CF000
0038F000
00307800
00607800
00C03C00
01803C00
03003E00
07001E00
0F001F00
7F803F80
FFE1FFE0
ENDCHAR

STARTCHAR Y
ENCODING 89
SWIDTH 685 0
DWIDTH 26 0
BBX 25 28 5 0
BITMAP
FFE0FF80
3E003F00
1E001C00
1E001800
0F001800
0F003000
0F806000
0780C000
0780C000
03C18000
03C30000
03E60000
01EE0000
01EC0000
00F80000
00F00000
00F00000
00F00000
01F00000
01E00000
01E00000
01E00000
03C00000
03C00000
03C00000
03C00000
07C00000
7FFC0000
ENDCHAR

STARTCHAR Z
ENCODING 90
SWIDTH 667 0
DWIDTH 25 0
BBX 26 28 1 0
BITMAP
00FFFFC0
01FC07C0
01E00F80
01C01F00
03803E00
03007C00
03007C00
0600F800
0401F000
0403E000
0007C000
00078000
000F8000
001F0000
003E0000
007C0000
00780000
00F80000
01F00200
03E00600
07C00600
07800C00
0F801C00
1F001C00
3E007800
7C00F800
7807F800
FFFFF800
ENDCHAR

STARTCHAR bracketleft
ENCODING 91
SWIDTH 333 0
DWIDTH 13 0
BBX 16 34 0 -6
BITMAP
007F
0070
00F0
00E0
00E0
00E0
01C0
01C0
01C0
01C0
0380
0380
0380
0380
0700
0700
0700
0700
0E00
0E00
0E00
1E00
1C00
1C00
1C00
3800
3800
3800
3800
7000
7000
7000
7000
FF00
ENDCHAR

STARTCHAR backslash
ENCODING 92
SWIDTH 606 0
DWIDTH 23 0
BBX 6 28 10 -1
BITMAP
C0
C0
C0
E0
E0
E0
E0
60
60
60
60
70
70
70
70
30
30
30
30
38
38
38
38
18
18
18
18
1C
ENDCHAR

STARTCHAR bracketright
ENCODING 93
SWIDTH 333 0
DWIDTH 13 0
BBX 17 34 -3 -6
BITMAP
007F80
000700
000700
000700
000F00
000E00
000E00
000E00
001C00
001C00
001C00
001C00
003800
003800
003800
003800
007000
007000
007000
00F000
00E000
00E000
00E000
01C000
01C000
01C000
01C000
038000
038000
038000
038000
070000
0F0000
FF0000
ENDCHAR

STARTCHAR asciicircum
ENCODING 94
SWIDTH 606 0
DWIDTH 23 0
BBX 17 13 5 13
BITMAP
008000
01C000
03C000
036000
066000
063000
0C3800
1C1800
180C00
380C00
300600
600700
E00380
ENDCHAR

STARTCHAR underscore
ENCODING 95
SWIDTH 500 0
DWIDTH 19 0
BBX 19 2 0 -5
BITMAP
FFFFE0
FFFFE0
ENDCHAR

STARTCHAR quoteleft
ENCODING 96
SWIDTH 204 0
DWIDTH 8 0
BBX 7 10 5 18
BITMAP
06
1C
30
60
60
F0
F8
F8
70
20
ENDCHAR

STARTCHAR a
ENCODING 97
SWIDTH 574 0
DWIDTH 22 0
BBX 20 18 1 0
BITMAP
03F0E0
079DC0
0E05C0
1C06C0
380380
780380
700380
F00700
F00700
E00700
E00700
E00E10
E00E30
E01E20
703660
786EC0
3FCF80
0F0700
ENDCHAR

STARTCHAR b
ENCODING 98
SWIDTH 556 0
DWIDTH 21 0
BBX 16 28 3 0
BITMAP
0780
3F80
0700
0700
0700
0600
0E00
0E00
0E00
1C00
1C78
1DFC
3F0E
3E0F
3C07
3807
7807
7007
7007
F00F
E00F
E00E
E01E
E01C
E038
7070
38E0
1F80
ENDCHAR

STARTCHAR c
ENCODING 99
SWIDTH 444 0
DWIDTH 17 0
BBX 14 18 2 0
BITMAP
01F0
0718
0E0C
1C3C
383C
703C
7000
F000
E000
E000
E000
E000
E000
E018
7030
7860
3FC0
0F00
ENDCHAR

STARTCHAR d
ENCODING 100
SWIDTH 611 0
DWIDTH 23 0
BBX 21 28 2 0
BITMAP
000078
0003F8
000078
000070
000070
000070
0000E0
0000E0
0000E0
0000E0
01F1C0
07F9C0
0F0DC0
1C0780
3C0380
380780
780780
700700
F00700
F00700
E00E00
E00E10
E01E10
E01C30
703C60
786CC0
3FCF80
0F0700
ENDCHAR

STARTCHAR e
ENCODING 101
SWIDTH 444 0
DWIDTH 17 0
BBX 15 18 1 0
BITMAP
01F8
071C
0E0E
1C0E
380E
781C
701C
7078
F1E0
FF00
F000
E000
E000
E00C
7018
7830
1FE0
0700
ENDCHAR

STARTCHAR f
ENCODING 102
SWIDTH 333 0
DWIDTH 13 0
BBX 18 35 -1 -7
BITMAP
000780
000FC0
0019C0
0031C0
003000
007000
006000
00E000
00E000
00C000
0FFC00
0FFC00
01C000
018000
038000
038000
038000
038000
070000
070000
070000
070000
0E0000
0E0000
0E0000
0E0000
1C0000
1C0000
1C0000
3C0000
380000
780000
780000
F00000
C00000
ENDCHAR

STARTCHAR g
ENCODING 103
SWIDTH 537 0
DWIDTH 20 0
BBX 22 26 -1 -7
BITMAP
00007C
003FFC
00E39C
01C1C0
0380E0
0780E0
0700E0
0700E0
0701E0
0301C0
0383C0
00C780
07FE00
0C0000
180000
1C0000
1FFC00
07FF80
0FFF80
3003C0
6001C0
E001C0
E00180
700300
380E00
0FF000
ENDCHAR

STARTCHAR h
ENCODING 104
SWIDTH 611 0
DWIDTH 23 0
BBX 21 28 1 0
BITMAP
01E000
0FE000
01E000
01C000
01C000
01C000
03C000
038000
038000
078000
070F00
073F80
0761C0
0EC1C0
0E81C0
0F01C0
1E01C0
1E0380
1C0380
1C0380
380700
380708
380718
700E10
700E20
700E60
F007C0
800300
ENDCHAR

STARTCHAR i
ENCODING 105
SWIDTH 333 0
DWIDTH 13 0
BBX 9 27 2 0
BITMAP
0300
0780
0780
0300
0000
0000
0000
0000
0000
1E00
FE00
1E00
1C00
1C00
1C00
3C00
3800
3800
7800
7000
7080
7080
E180
E300
E600
7C00
7000
ENDCHAR

STARTCHAR j
ENCODING 106
SWIDTH 315 0
DWIDTH 12 0
BBX 15 34 -4 -7
BITMAP
000C
001E
001E
000C
0000
0000
0000
0000
0000
003C
01FC
0038
0038
0038
0038
0030
0070
0070
0070
0060
00E0
00E0
00E0
01C0
01C0
01C0
01C0
0380
0380
6300
E700
E600
FC00
3000
ENDCHAR

STARTCHAR k
ENCODING 107
SWIDTH 556 0
DWIDTH 21 0
BBX 19 28 2 0
BITMAP
03E000
1FC000
01C000
01C000
038000
038000
038000
078000
070000
070000
070F00
0E3F80
0E61C0
0E81C0
1F01C0
1F0180
1E0300
3C0600
3C3800
39C000
383000
703800
703860
703840
F03880
E03980
E03E00
000C00
ENDCHAR

STARTCHAR l
ENCODING 108
SWIDTH 333 0
DWIDTH 13 0
BBX 10 28 3 0
BITMAP
03C0
1FC0
0380
0380
0380
0380
0700
0700
0700
0E00
0E00
0E00
1C00
1C00
1C00
1C00
3800
3800
3800
7000
7000
7080
7100
E300
E200
E600
FC00
7000
ENDCHAR

STARTCHAR m
ENCODING 109
SWIDTH 889 0
DWIDTH 34 0
BBX 30 18 2 0
BITMAP
0F0E0380
3F3F07C0
0E7F9FE0
0EC3B0E0
0E83A0E0
0F03C0E0
0E03C0E0
1E0781C0
1C0701C0
1C0701C0
3C0F0380
380E0380
380E038C
780E0718
701C0710
701C0720
701C07C0
80200100
ENDCHAR

STARTCHAR n
ENCODING 110
SWIDTH 611 0
DWIDTH 23 0
BBX 20 18 2 0
BITMAP
7F0E00
1E3F80
0E4380
0E8380
1D0380
1E0380
1E0700
1C0700
3C0700
380F00
380E00
780E10
700E30
701C20
701C60
E01CC0
E00F80
000600
ENDCHAR

STARTCHAR o
ENCODING 111
SWIDTH 500 0
DWIDTH 19 0
BBX 16 18 1 0
BITMAP
03F0
0F1C
1E0E
3C06
3807
7807
7007
F007
F007
E00F
E00F
E00E
E01E
E01C
703C
3078
38E0
0FC0
ENDCHAR

STARTCHAR p
ENCODING 112
SWIDTH 574 0
DWIDTH 22 0
BBX 23 25 -3 -7
BITMAP
0071F0
03F3F8
00741C
00781E
00700E
00F00E
00E00E
00E00E
01C01E
01C01E
01C01C
01C03C
03C038
03C078
03C070
0761E0
073FC0
071F00
0F0000
0E0000
0E0000
0E0000
1E0000
3E0000
FFC000
ENDCHAR

STARTCHAR q
ENCODING 113
SWIDTH 556 0
DWIDTH 21 0
BBX 19 25 1 -7
BITMAP
00F860
038EC0
0F06C0
1E03C0
1C03C0
380380
780380
780380
700700
F00700
F00700
F00F00
F00E00
F01E00
703E00
786C00
3FDC00
0F1C00
003C00
003800
003800
003800
007000
00F800
03FE00
ENDCHAR

STARTCHAR r
ENCODING 114
SWIDTH 444 0
DWIDTH 17 0
BBX 15 18 2 0
BITMAP
0E38
7E7C
1EDE
0E9E
0D0C
0D00
1E00
1C00
1C00
3C00
3800
3800
3800
7000
7000
7000
F000
E000
ENDCHAR

STARTCHAR s
ENCODING 115
SWIDTH 444 0
DWIDTH 17 0
BBX 15 18 1 0
BITMAP
03F8
061C
0C0E
181E
181E
1C0C
1E00
1F80
0FF0
03F8
00FC
603C
F01C
F01C
E018
6038
30F0
1FC0
ENDCHAR

STARTCHAR t
ENCODING 116
SWIDTH 352 0
DWIDTH 13 0
BBX 10 24 2 0
BITMAP
0380
0700
0700
0700
0E00
0E00
FFC0
FFC0
1C00
1C00
1C00
3800
3800
3800
3800
7000
7000
7040
E080
E180
E100
E600
FC00
7800
ENDCHAR

STARTCHAR u
ENCODING 117
SWIDTH 611 0
DWIDTH 23 0
BBX 19 18 3 0
BITMAP
1E0000
FE03C0
1C0380
1C0380
1C0700
180700
380700
380E00
380E00
701E00
701C00
703C00
E01C60
E07840
E0B8C0
E33980
FE3F00
7C1C00
ENDCHAR

STARTCHAR v
ENCODING 118
SWIDTH 519 0
DWIDTH 20 0
BBX 16 18 2 0
BITMAP
3E06
FE0F
1C07
1C07
1C03
1C03
3803
3802
3802
7006
7004
700C
7008
7018
7030
3860
1FC0
0F00
ENDCHAR

STARTCHAR w
ENCODING 119
SWIDTH 778 0
DWIDTH 30 0
BBX 25 18 3 0
BITMAP
1E000300
7E038780
1E070380
1C070380
1C070180
1C070180
380E0180
380E0100
380E0100
701C0300
701C0200
703C0600
E03C0400
E05C0C00
E0DC1800
E19E3000
7E0FE000
3C078000
ENDCHAR

STARTCHAR x
ENCODING 120
SWIDTH 500 0
DWIDTH 19 0
BBX 19 18 0 0
BITMAP
0300C0
0783E0
0FC3E0
19C4E0
11C800
20F800
00F000
00F000
00E000
006000
00F000
00F000
017020
037040
6238C0
F63980
FC3F00
781E00
ENDCHAR

STARTCHAR y
ENCODING 121
SWIDTH 500 0
DWIDTH 19 0
BBX 20 25 -2 -7
BITMAP
018020
03C070
07C070
0CE070
08E070
187060
007060
007040
0070C0
003880
003980
003900
003A00
003E00
001C00
001C00
001800
001000
003000
006000
604000
F08000
F30000
7E0000
380000
ENDCHAR

STARTCHAR z
ENCODING 122
SWIDTH 463 0
DWIDTH 18 0
BBX 18 18 0 0
BITMAP
03E040
07F8C0
0FFF80
183F80
300300
100600
000C00
003800
00F000
03C000
070000
0C0000
180180
300100
7FC200
5FFE00
C3FC00
C0F000
ENDCHAR

STARTCHAR braceleft
ENCODING 123
SWIDTH 333 0
DWIDTH 13 0
BBX 16 35 3 -7
BITMAP
0007
0018
0030
0060
00E0
00C0
01C0
01C0
01C0
01C0
03C0
0380
0380
0300
0600
0C00
3000
C000
3000
1800
0C00
0C00
0C00
1C00
1C00
3C00
3800
7800
7000
7000
6000
6000
3000
3000
0E00
ENDCHAR

STARTCHAR bar
ENCODING 124
SWIDTH 606 0
DWIDTH 23 0
BBX 2 35 12 -7
BITMAP
C0
C0
C0
C0
C0
C0
C0
C0
C0
C0
C0
C0
C0
C0
C0
C0
C0
C0
C0
C0
C0
C0
C0
C0
C0
C0
C0
C0
C0
C0
C0
C0
C0
C0
C0
ENDCHAR

STARTCHAR braceright
ENCODING 125
SWIDTH 333 0
DWIDTH 13 0
BBX 16 35 -3 -7
BITMAP
0070
0008
000C
0006
0006
000E
000E
000E
001C
001C
003C
0038
0038
0030
0030
0018
000C
0003
000C
0030
0060
00C0
01C0
01C0
03C0
03C0
0380
0380
0380
0380
0300
0600
0C00
1800
E000
ENDCHAR

STARTCHAR asciitilde
ENCODING 126
SWIDTH 606 0
DWIDTH 23 0
BBX 21 5 3 10
BITMAP
3F0018
7FE010
61FC30
C03FE0
8007C0
ENDCHAR

STARTCHAR space
ENCODING 160
SWIDTH 278 0
DWIDTH 13 0
BBX 0 0 0 0
BITMAP
ENDCHAR

STARTCHAR exclamdown
ENCODING 161
SWIDTH 333 0
DWIDTH 13 0
BBX 12 29 0 -8
BITMAP
0060
01F0
01F0
00F0
0040
0000
0000
0000
0180
0100
0100
0300
0200
0200
0600
0600
0C00
0C00
0C00
1C00
1C00
3C00
3800
7800
7800
7800
F800
7000
7000
ENDCHAR

STARTCHAR cent
ENCODING 162
SWIDTH 556 0
DWIDTH 21 0
BBX 14 36 5 -8
BITMAP
0008
0018
0010
0010
0030
0020
0020
0020
0060
0040
00E0
03F8
0ECC
1C9C
38BC
39BC
7118
7100
F100
E300
E200
E200
E200
E600
E418
7430
7C60
3FC0
0F00
0800
1800
1000
1000
1000
3000
2000
ENDCHAR

STARTCHAR sterling
ENCODING 163
SWIDTH 556 0
DWIDTH 21 0
BBX 23 27 -1 0
BITMAP
0007F0
000E18
001C0C
00380E
00701E
00703E
00F03E
00F03C
00F008
00F000
00F000
007000
1FFFC0
1FFFC0
007000
007000
007000
007000
007000
3E6000
7FA00C
63E018
C0F830
C1FFF0
C1BFE0
671FC0
3C0700
ENDCHAR

STARTCHAR currency
ENCODING 164
SWIDTH 606 0
DWIDTH 23 0
BBX 19 19 2 3
BITMAP
400040
E3F8E0
77FEC0
3F1F00
3C0780
380380
7001C0
7001C0
6000C0
6000C0
6000C0
7001C0
7001C0
380380
3C0700
3F1F80
77FEC0
E3F8E0
400040
ENDCHAR

STARTCHAR yen
ENCODING 165
SWIDTH 556 0
DWIDTH 21 0
BBX 24 26 1 0
BITMAP
3FF0FF
0F003E
078018
078018
078030
03C060
03C060
01C0C0
01E180
01E100
00F300
00F600
007C00
7FFFFC
007800
007800
00F000
00F000
00F000
FFFFF0
00E000
01E000
01E000
01E000
03E000
3FFC00
ENDCHAR

STARTCHAR brokenbar
ENCODING 166
SWIDTH 606 0
DWIDTH 23 0
BBX 2 35 12 -7
BITMAP
C0
C0
C0
C0
C0
C0
C0
C0
C0
C0
C0
C0
C0
C0
C0
00
00
00
00
C0
C0
C0
C0
C0
C0
C0
C0
C0
C0
C0
C0
C0
C0
C0
C0
ENDCHAR

STARTCHAR section
ENCODING 167
SWIDTH 500 0
DWIDTH 19 0
BBX 18 35 1 -7
BITMAP
003F00
0061C0
00C1C0
0083C0
0183C0
018080
018000
01C000
01E000
00E000
00F000
01F800
067800
0C3C00
0C1C00
1C1E00
1C0E00
1C0E00
1E0E00
1E0E00
0F0C00
0F0C00
079800
03E000
03C000
01E000
00E000
00E000
006000
206000
F06000
F04000
E0C000
618000
3E0000
ENDCHAR

STARTCHAR dieresis
ENCODING 168
SWIDTH 333 0
DWIDTH 13 0
BBX 11 4 5 21
BITMAP
60C0
F1E0
F1E0
60C0
ENDCHAR

STARTCHAR copyright
ENCODING 169
SWIDTH 747 0
DWIDTH 28 0
BBX 27 27 3 1
BITMAP
003FC000
01E07000
03001C00
04000600
08000300
101F9100
20607080
60C038C0
41801840
43800840
C3000020
87000020
87000020
87000020
87000020
87000020
C7000020
43800060
43800840
61C010C0
20F06080
103F8180
18000300
04000600
03001C00
01E0F000
003F8000
ENDCHAR

STARTCHAR ordfeminine
ENCODING 170
SWIDTH 422 0
DWIDTH 16 0
BBX 13 11 5 17
BITMAP
0F70
1CA0
38E0
70E0
60E0
E0C0
E0C0
E1D8
E390
66A0
3DC0
ENDCHAR

STARTCHAR guillemotleft
ENCODING 171
SWIDTH 426 0
DWIDTH 16 0
BBX 16 15 2 3
BITMAP
0607
0C06
0C0C
181C
3838
7038
7070
E0F0
E0E0
6070
7070
7070
3030
3030
3010
ENDCHAR

STARTCHAR logicalnot
ENCODING 172
SWIDTH 606 0
DWIDTH 23 0
BBX 20 11 3 7
BITMAP
FFFFF0
FFFFF0
000030
000030
000030
000030
000030
000030
000030
000030
000030
ENDCHAR

STARTCHAR hyphen
ENCODING 173
SWIDTH 333 0
DWIDTH 13 0
BBX 9 3 2 7
BITMAP
7F80
7F00
FF00
ENDCHAR

STARTCHAR registered
ENCODING 174
SWIDTH 747 0
DWIDTH 28 0
BBX 27 27 3 1
BITMAP
003FC000
01E07000
03001C00
0C000600
18000300
13FF0180
20E1C080
60E0E0C0
40E0E040
40E0E060
C0E0E020
80E1E020
80E38020
80FE0020
80E70020
80E70020
C0E38020
40E1C060
40E1C040
60E0E0C0
20E07080
13F83900
08000300
04000600
03001C00
01E0F000
003F8000
ENDCHAR

STARTCHAR macron
ENCODING 175
SWIDTH 333 0
DWIDTH 13 0
BBX 12 2 3 21
BITMAP
7FF0
FFF0
ENDCHAR

STARTCHAR degree
ENCODING 176
SWIDTH 400 0
DWIDTH 15 0
BBX 11 11 5 15
BITMAP
1F00
3F80
71C0
E0E0
C060
C060
C060
E0E0
71C0
3F80
1F00
ENDCHAR

STARTCHAR plusminus
ENCODING 177
SWIDTH 606 0
DWIDTH 23 0
BBX 20 25 3 0
BITMAP
006000
006000
006000
006000
006000
006000
006000
006000
006000
FFFFF0
FFFFF0
006000
006000
006000
006000
006000
006000
006000
006000
006000
000000
000000
000000
FFFFF0
FFFFF0
ENDCHAR

STARTCHAR twosuperior
ENCODING 178
SWIDTH 333 0
DWIDTH 13 0
BBX 11 13 3 13
BITMAP
0F80
11C0
30E0
38E0
38E0
01C0
0380
0700
0C00
3040
6080
FF80
FF80
ENDCHAR

STARTCHAR threesuperior
ENCODING 179
SWIDTH 333 0
DWIDTH 13 0
BBX 11 14 3 12
BITMAP
0F80
18C0
38E0
38E0
00C0
0180
1E00
0180
0180
E1C0
E1C0
C180
6380
3E00
ENDCHAR

STARTCHAR acute
ENCODING 180
SWIDTH 333 0
DWIDTH 13 0
BBX 8 8 7 20
BITMAP
02
07
0F
1E
3C
70
C0
80
ENDCHAR

STARTCHAR mu
ENCODING 181
SWIDTH 611 0
DWIDTH 23 0
BBX 21 26 0 -8
BITMAP
00E038
00E038
00E070
01C070
01C070
01C060
0180E0
0380E0
0380E0
0301C0
0701C0
0703C0
070380
0E0788
0F0D88
0F1B90
0BF3F0
1BC1C0
100000
300000
300000
700000
700000
F00000
600000
600000
ENDCHAR

STARTCHAR paragraph
ENCODING 182
SWIDTH 650 0
DWIDTH 25 0
BBX 18 35 3 -7
BITMAP
0FFFC0
3FC300
7FC200
FFC200
FFC200
FFC200
FFC200
FFC200
FFC200
FFC200
FFC200
7FC200
3FC200
1FC200
004200
004200
004200
004200
004200
004200
004200
004200
004200
004200
004200
004200
004200
004200
004200
004200
004200
004200
004200
004200
004200
ENDCHAR

STARTCHAR periodcentered
ENCODING 183
SWIDTH 278 0
DWIDTH 11 0
BBX 4 4 5 11
BITMAP
60
F0
F0
60
ENDCHAR

STARTCHAR cedilla
ENCODING 184
SWIDTH 333 0
DWIDTH 13 0
BBX 8 7 -3 -7
BITMAP
06
1E
0F
07
07
1E
F8
ENDCHAR

STARTCHAR onesuperior
ENCODING 185
SWIDTH 333 0
DWIDTH 13 0
BBX 8 13 4 13
BITMAP
03
1F
07
06
06
06
0E
0C
0C
1C
18
18
FE
ENDCHAR

STARTCHAR ordmasculine
ENCODING 186
SWIDTH 372 0
DWIDTH 14 0
BBX 12 11 4 17
BITMAP
0F80
1CE0
3060
7070
6070
E070
E070
E0E0
60C0
7380
1E00
ENDCHAR

STARTCHAR guillemotright
ENCODING 187
SWIDTH 426 0
DWIDTH 16 0
BBX 16 15 0 3
BITMAP
1818
180C
0C0C
0C0C
0C0E
0E0E
0E0E
0F0F
0E0E
1C1C
181C
3838
3030
6060
C0E0
ENDCHAR

STARTCHAR onequarter
ENCODING 188
SWIDTH 834 0
DWIDTH 32 0
BBX 24 26 4 0
BITMAP
038006
1F000C
070018
060010
060030
060060
0E0040
0C00C0
0C0180
0C0100
1C0300
180600
FE0400
000801
001803
003007
00200E
006016
00C026
0080CE
01818C
03030C
0203FF
060018
0C0018
18007E
ENDCHAR

STARTCHAR onehalf
ENCODING 189
SWIDTH 834 0
DWIDTH 32 0
BBX 26 26 4 0
BITMAP
07000C00
1F000800
06001800
06003000
06002000
0E006000
0C00C000
0C008000
0C018000
1C030000
18020000
18060000
FE0C0000
00081F00
00182380
003061C0
002071C0
006071C0
00C00380
00800700
01000E00
03001800
02006080
0400C100
0C01FF00
1801FF00
ENDCHAR

STARTCHAR threequarters
ENCODING 190
SWIDTH 834 0
DWIDTH 32 0
BBX 25 26 3 0
BITMAP
0F800300
18C00200
38E00600
38E00C00
00C00800
01801800
1E003000
01802000
01804000
E1C0C000
E1C18000
C1810000
63830000
3E060080
00040180
000C0380
00180700
00100D00
00301300
00602700
00C04600
00818600
0181FF80
03000C00
02000C00
06003F00
ENDCHAR

STARTCHAR questiondown
ENCODING 191
SWIDTH 444 0
DWIDTH 17 0
BBX 12 29 3 -7
BITMAP
00E0
00E0
01F0
00F0
0040
0000
0000
0000
03C0
04C0
0860
1860
0860
00E0
00C0
03C0
0780
0F00
3E00
7C00
7820
F020
E020
C020
C020
C040
60C0
7180
1E00
ENDCHAR

STARTCHAR Agrave
ENCODING 192
SWIDTH 704 0
DWIDTH 27 0
BBX 28 38 -2 0
BITMAP
00002000
00007000
00007800
00003C00
00001E00
00000600
00000300
00000080
00000000
00000000
00000800
00001C00
00003C00
00003C00
00007C00
0000FC00
0000DC00
0001BC00
00019E00
00031E00
00061E00
00061E00
000C1E00
00181E00
00181E00
00300E00
00300F00
007FFF00
00FFFF00
00C00F00
01800F00
01000F00
03000F00
06000780
06000780
0E000780
3F000FC0
FFC07FF0
ENDCHAR

STARTCHAR Aacute
ENCODING 193
SWIDTH 704 0
DWIDTH 27 0
BBX 28 38 -2 0
BITMAP
00000080
000001C0
000003C0
000007C0
00000700
00000C00
00001800
00002000
00000000
00000000
00000800
00001C00
00003C00
00003C00
00007C00
0000FC00
0000DC00
0001BC00
00019E00
00031E00
00061E00
00061E00
000C1E00
00181E00
00181E00
00300E00
00300F00
007FFF00
00FFFF00
00C00F00
01800F00
01000F00
03000F00
06000780
06000780
0E000780
3F000FC0
FFC07FF0
ENDCHAR

STARTCHAR Acircumflex
ENCODING 194
SWIDTH 704 0
DWIDTH 27 0
BBX 28 37 -2 0
BITMAP
00000C00
00001E00
00003E00
00007700
0000C180
000300C0
00000000
00000000
00000000
00000800
00001C00
00003C00
00003C00
00007C00
0000FC00
0000DC00
0001BC00
00019E00
00031E00
00061E00
00061E00
000C1E00
00181E00
00181E00
00300E00
00300F00
007FFF00
00FFFF00
00C00F00
01800F00
01000F00
03000F00
06000780
06000780
0E000780
3F000FC0
FFC07FF0
ENDCHAR

STARTCHAR Atilde
ENCODING 195
SWIDTH 704 0
DWIDTH 27 0
BBX 28 36 -2 0
BITMAP
00007000
0000FE20
0001FFE0
00011FC0
00000380
00000000
00000000
00000000
00000800
00001C00
00003C00
00003C00
00007C00
0000FC00
0000DC00
0001BC00
00019E00
00031E00
00061E00
00061E00
000C1E00
00181E00
00181E00
00300E00
00300F00
007FFF00
00FFFF00
00C00F00
01800F00
01000F00
03000F00
06000780
06000780
0E000780
3F000FC0
FFC07FF0
ENDCHAR

STARTCHAR Adieresis
ENCODING 196
SWIDTH 704 0
DWIDTH 27 0
BBX 28 36 -1 0
BITMAP
0000C180
0001E3C0
0001E3C0
0000C180
00000000
00000000
00000000
00000000
00001800
00003800
00003800
00007800
00007800
0000F800
0001BC00
0001BC00
00033C00
00063C00
00063C00
000C1C00
000C1C00
00181E00
00301E00
00301E00
00601E00
007FFE00
00FFFE00
01800E00
01800E00
03000F00
06000F00
06000F00
0E000F00
1E000F00
7F001F80
FFC0FFF0
ENDCHAR

STARTCHAR Aring
ENCODING 197
SWIDTH 704 0
DWIDTH 27 0
BBX 28 37 -2 0
BITMAP
00000C00
00003F00
00002100
00006180
00006180
00002100
00003F00
00000C00
00000000
00000800
00001800
00003C00
00003C00
00007C00
0000FC00
0000DC00
0001BC00
00019C00
00031E00
00061E00
00061E00
000C1E00
00181E00
00181E00
00301E00
00300E00
007FFF00
00FFFF00
00C00F00
01800F00
01000F00
03000F00
06000F00
06000700
0E000780
3F000FC0
FFC07FF0
ENDCHAR

STARTCHAR AE
ENCODING 198
SWIDTH 870 0
DWIDTH 33 0
BBX 39 28 -2 0
BITMAP
0000FFFFFE
00001FE07C
00000DC01C
00001BC01C
000033C00C
000067800C
0000678008
0000C78008
0001878308
00010F0300
00030F0600
00060F0E00
000C1E3E00
00081FFC00
00101E3C00
00201E1C00
007FFC1C00
007FFC0800
00C03C0830
01803C1820
0300780060
0200780060
06007800E0
0C007801C0
1800F001C0
3800F007C0
7C01F81F80
FE0FFFFF80
ENDCHAR

STARTCHAR Ccedilla
ENCODING 199
SWIDTH 722 0
DWIDTH 27 0
BBX 25 35 4 -7
BITMAP
001FE000
00783880
01E00D80
03C00F80
07800780
0F000780
1F000300
1E000300
3E000300
3C000300
7C000300
78000000
F8000000
F8000000
F8000000
F8000000
F0000000
F0000000
F0000000
F0000400
F8000400
78000C00
78000800
3C001800
3C003000
0F006000
07C38000
01FF0000
00200000
00F80000
00780000
00380000
00780000
07E00000
0F000000
ENDCHAR

STARTCHAR Egrave
ENCODING 200
SWIDTH 722 0
DWIDTH 27 0
BBX 27 38 1 0
BITMAP
00060000
000F0000
00078000
0003C000
0001C000
00006000
00001800
00000000
00000000
00000000
07FFFFE0
003C03E0
007C01E0
007800E0
007800C0
007800C0
00F800C0
00F000C0
00F03080
00F03000
01E06000
01E06000
01E1E000
01FFE000
03C3C000
03C1C000
03C0C000
03C0C000
07808080
07808180
07818100
07800300
0F000700
0F000600
0F000E00
0F003E00
1F00FE00
FFFFFC00
ENDCHAR

STARTCHAR Eacute
ENCODING 201
SWIDTH 722 0
DWIDTH 27 0
BBX 27 38 1 0
BITMAP
00000800
00001C00
00003C00
00007800
0000E000
0001C000
00030000
00000000
00000000
00000000
07FFFFE0
003C03E0
007C01E0
007800E0
007800C0
007800C0
00F800C0
00F000C0
00F03080
00F03000
01E06000
01E06000
01E1E000
01FFE000
03C3C000
03C1C000
03C0C000
03C0C000
07808080
07808180
07818100
07800300
0F000700
0F000600
0F000E00
0F003E00
1F00FE00
FFFFFC00
ENDCHAR

STARTCHAR Ecircumflex
ENCODING 202
SWIDTH 722 0
DWIDTH 27 0
BBX 27 37 1 0
BITMAP
0001C000
0003E000
0007E000
000E3000
00181000
00300800
00000000
00000000
00000000
07FFFFE0
003C03E0
007C01E0
007800E0
007800C0
007800C0
00F800C0
00F000C0
00F03080
00F03000
01E06000
01E06000
01E1E000
01FFE000
03C3C000
03C1C000
03C0C000
03C0C000
07808080
07808180
07818100
07800300
0F000700
0F000600
0F000E00
0F003E00
1F00FE00
FFFFFC00
ENDCHAR

STARTCHAR Edieresis
ENCODING 203
SWIDTH 722 0
DWIDTH 27 0
BBX 27 36 1 0
BITMAP
000C1800
001E3C00
001E3C00
000C1800
00000000
00000000
00000000
00000000
07FFFFE0
007C07E0
007C01C0
007801C0
007800C0
007800C0
00F00080
00F00080
00F03080
00F02000
01E06000
01E0E000
01E1C000
01FFC000
03C3C000
03C1C000
03C1C000
03C08000
07808180
07818100
07818300
07800300
0F000600
0F000E00
0F001E00
1F003C00
1F00FC00
FFFFFC00
ENDCHAR

STARTCHAR Igrave
ENCODING 204
SWIDTH 407 0
DWIDTH 15 0
BBX 19 38 0 0
BITMAP
006000
00F000
007800
003C00
001C00
000600
000180
000000
000000
000000
03FFE0
003F00
001E00
003C00
003C00
003C00
003C00
007800
007800
007800
007800
00F000
00F000
00F000
00F000
01E000
01E000
01E000
01E000
03C000
03C000
03C000
038000
078000
078000
078000
0F8000
FFF800
ENDCHAR

STARTCHAR Iacute
ENCODING 205
SWIDTH 407 0
DWIDTH 15 0
BBX 19 38 0 0
BITMAP
000080
0001C0
0003C0
000780
000E00
001C00
003000
000000
000000
000000
03FFE0
003F00
001E00
003C00
003C00
003C00
003C00
007800
007800
007800
007800
00F000
00F000
00F000
00F000
01E000
01E000
01E000
01E000
03C000
03C000
03C000
038000
078000
078000
078000
0F8000
FFF800
ENDCHAR

STARTCHAR Icircumflex
ENCODING 206
SWIDTH 407 0
DWIDTH 15 0
BBX 19 37 0 0
BITMAP
000E00
001F00
001F00
003180
0060C0
018060
000000
000000
000000
03FFE0
003F00
001E00
003C00
003C00
003C00
003C00
007800
007800
007800
007800
00F000
00F000
00F000
00F000
01E000
01E000
01E000
01E000
03C000
03C000
03C000
038000
078000
078000
078000
0F8000
FFF800
ENDCHAR

STARTCHAR Idieresis
ENCODING 207
SWIDTH 407 0
DWIDTH 15 0
BBX 19 36 1 0
BITMAP
0060C0
00F1E0
00F1E0
0060C0
000000
000000
000000
000000
03FFC0
003E00
003C00
003C00
003C00
007800
007800
007800
007800
00F000
00F000
00F000
00F000
01E000
01E000
01E000
01E000
03C000
03C000
03C000
03C000
078000
078000
078000
078000
0F0000
1F8000
FFF800
ENDCHAR

STARTCHAR Gbreve
ENCODING 208
SWIDTH 778 0
DWIDTH 30 0
BBX 26 37 3 0
BITMAP
00080800
00080800
00081000
000C3000
000FF000
0007E000
00038000
00000000
00000000
000FE000
007838C0
00E00E80
03C00780
07800780
0F000380
0F000380
1E000380
3C000100
3C000100
7C000000
78000000
78000000
F8000000
F8000000
F001FFC0
F0001F00
F0001E00
F0001E00
F0003C00
F0003C00
70003C00
78007C00
78007800
3C00E800
1E01D800
0F871000
03FC1000
ENDCHAR

STARTCHAR Ntilde
ENCODING 209
SWIDTH 815 0
DWIDTH 31 0
BBX 34 37 0 0
BITMAP
0000380000
00007F1000
0000FFF000
00008FE000
000081C000
0000000000
0000000000
0000000000
0000000000
03FE00FFC0
007E001F00
003F000E00
003F000C00
0037000C00
0027800C00
0067800C00
0067C01800
0063C01800
0043E01800
00C1E01000
00C1E03000
00C0F03000
0180F03000
0180782000
0180786000
01807C6000
03003C6000
03003C4000
03001EC000
03001EC000
06000FC000
06000F8000
0600078000
0E00078000
0E00078000
3F80030000
FFE0030000
ENDCHAR

STARTCHAR Ograve
ENCODING 210
SWIDTH 778 0
DWIDTH 30 0
BBX 26 37 3 0
BITMAP
000E0000
000F0000
000F0000
00078000
0001C000
00006000
00003000
00000000
00000000
001FF000
007C3C00
00E00E00
03C00700
07800700
0F000380
0F000380
1E0003C0
3E0003C0
3C0003C0
7C0003C0
780003C0
780003C0
F80007C0
F80007C0
F0000780
F0000780
F0000F80
F0000F00
F0001F00
F0001E00
70003C00
70003C00
38007800
3800F000
1C01C000
0F0F8000
03FC0000
ENDCHAR

STARTCHAR Oacute
ENCODING 211
SWIDTH 778 0
DWIDTH 30 0
BBX 26 37 3 0
BITMAP
00001800
00003800
00007800
0000F000
0001C000
00038000
00060000
00000000
00000000
001FF000
007C3C00
00E00E00
03C00700
07800700
0F000380
0F000380
1E0003C0
3E0003C0
3C0003C0
7C0003C0
780003C0
780003C0
F80007C0
F80007C0
F0000780
F0000780
F0000F80
F0000F00
F0001F00
F0001E00
70003C00
70003C00
38007800
3800F000
1C01C000
0F0F8000
03FC0000
ENDCHAR

STARTCHAR Ocircumflex
ENCODING 212
SWIDTH 778 0
DWIDTH 30 0
BBX 26 36 3 0
BITMAP
0000E000
0001F000
0003B000
00061800
000C0800
00100400
00000000
00000000
001FF000
007C3C00
00E00E00
03C00700
07800700
0F000380
0F000380
1E0003C0
3E0003C0
3C0003C0
7C0003C0
780003C0
780003C0
F80007C0
F80007C0
F0000780
F0000780
F0000F80
F0000F00
F0001F00
F0001E00
70003C00
70003C00
38007800
3800F000
1C01C000
0F0F8000
03FC0000
ENDCHAR

STARTCHAR Otilde
ENCODING 213
SWIDTH 778 0
DWIDTH 30 0
BBX 26 36 3 0
BITMAP
000E0000
001FC400
003FFC00
0023F800
00207000
00000000
00000000
00000000
001FF000
007C3C00
00E00E00
03C00700
07800700
0F000380
0F000380
1E0003C0
3E0003C0
3C0003C0
7C0003C0
780003C0
780003C0
F80007C0
F80007C0
F0000780
F0000780
F0000F80
F0000F00
F0001F00
F0001E00
70003C00
70003C00
38007800
3800F000
1C01C000
0F0F8000
03FC0000
ENDCHAR

STARTCHAR Odieresis
ENCODING 214
SWIDTH 778 0
DWIDTH 30 0
BBX 26 35 3 0
BITMAP
00060C00
000F1E00
000F1E00
00060C00
00000000
00000000
00000000
001FF000
007C3C00
00E00E00
03C00700
07800780
0F000380
0F000380
1E0003C0
3E0003C0
3C0003C0
7C0003C0
780003C0
780003C0
F80007C0
F80007C0
F0000780
F0000780
F0000F80
F0000F00
F0001F00
F0001E00
70003C00
70003C00
38007800
3800F000
1C01C000
0F0F8000
03FC0000
ENDCHAR

STARTCHAR multiply
ENCODING 215
SWIDTH 606 0
DWIDTH 23 0
BBX 19 19 4 3
BITMAP
4000C0
E001E0
7003C0
380780
1C0F00
0E1E00
073C00
03F800
00F000
01E000
03F000
07B800
0F1C00
1E0E00
3C0700
780380
F001E0
6000C0
200040
ENDCHAR

STARTCHAR Oslash
ENCODING 216
SWIDTH 778 0
DWIDTH 30 0
BBX 26 28 3 0
BITMAP
001FF180
00783D00
00E00E00
03C00700
07800F80
0F001B80
0F0033C0
1E0063C0
3E0043C0
3C0083C0
7C0103C0
780303C0
780607C0
F80C07C0
F81807C0
F0100780
F0200F80
F0400F80
F0C00F00
F1801F00
F3001E00
76003C00
7C003C00
78007800
3800F000
3C01C000
6F0F8000
C3FC0000
ENDCHAR

STARTCHAR Ugrave
ENCODING 217
SWIDTH 815 0
DWIDTH 31 0
BBX 29 38 5 0
BITMAP
00030000
00038000
0003C000
0001E000
0000F000
00003000
00000C00
00000000
00000000
00000000
FFF81FF8
0F8007E0
0F0001C0
0F000180
0F000180
0F000100
1E000300
1E000300
1E000300
3C000200
3C000600
3C000600
3C000600
78000400
78000C00
78000C00
78000C00
F0000800
F0001800
F0001800
F0001000
F0003000
F0006000
78006000
7C01C000
3E038000
0FFE0000
01F00000
ENDCHAR

STARTCHAR Uacute
ENCODING 218
SWIDTH 815 0
DWIDTH 31 0
BBX 29 38 5 0
BITMAP
00001800
00003C00
00007800
0000F000
0000E000
00018000
00020000
00000000
00000000
00000000
FFF81FF8
0F8007E0
0F0001C0
0F000180
0F000180
0F000100
1E000300
1E000300
1E000300
3C000200
3C000600
3C000600
3C000600
78000400
78000C00
78000C00
78000C00
F0000800
F0001800
F0001800
F0001000
F0003000
F0006000
78006000
7C01C000
3E038000
0FFE0000
01F00000
ENDCHAR

STARTCHAR Ucircumflex
ENCODING 219
SWIDTH 815 0
DWIDTH 31 0
BBX 29 37 5 0
BITMAP
0000E000
0001F000
0003F000
00071800
000C0800
00180400
00000000
00000000
00000000
FFF81FF8
0F8007E0
0F0001C0
0F000180
0F000180
0F000100
1E000300
1E000300
1E000300
3C000200
3C000600
3C000600
3C000600
78000400
78000C00
78000C00
78000C00
F0000800
F0001800
F0001800
F0001000
F0003000
F0006000
78006000
7C01C000
3E038000
0FFE0000
01F00000
ENDCHAR

STARTCHAR Udieresis
ENCODING 220
SWIDTH 815 0
DWIDTH 31 0
BBX 29 36 6 0
BITMAP
00060C00
000F1E00
000F1E00
00060C00
00000000
00000000
00000000
00000000
FFF81FF8
0F8007E0
0F000380
0F000380
0F000300
0E000300
1E000300
1E000200
1E000600
3C000600
3C000600
3C000400
3C000400
78000C00
78000C00
78000800
78000800
F0001800
F0001800
F0001000
F0003000
F0003000
F0006000
7800C000
7801C000
3E038000
1FFE0000
01F00000
ENDCHAR

STARTCHAR Idotaccent
ENCODING 221
SWIDTH 407 0
DWIDTH 15 0
BBX 19 36 0 0
BITMAP
000600
000F00
000F00
000600
000000
000000
000000
000000
03FFE0
003F00
001E00
001E00
003C00
003C00
003C00
003C00
007800
007800
007800
007800
00F000
00F000
00F000
01E000
01E000
01E000
01E000
03C000
03C000
03C000
03C000
078000
078000
078000
0FC000
FFF800
ENDCHAR

STARTCHAR Scedilla
ENCODING 222
SWIDTH 667 0
DWIDTH 25 0
BBX 25 35 1 -7
BITMAP
001FC000
00707180
01C03F00
01801F00
03800F00
07000700
07000600
07000600
07800600
07C00600
07E00000
03FC0000
01FF8000
00FFE000
003FF000
000FF800
0001FC00
30007C00
30003C00
30001C00
30001C00
30001C00
78001C00
78003800
7C003000
6E00E000
C3C3C000
00FF0000
00380000
007C0000
003C0000
001C0000
00380000
03F00000
03800000
ENDCHAR

STARTCHAR germandbls
ENCODING 223
SWIDTH 556 0
DWIDTH 21 0
BBX 24 35 -2 -7
BITMAP
0001F8
00071C
000E06
001C07
001C07
003807
003807
00700F
00700E
00E01C
00E038
00E1E0
00E3E0
01C070
01C038
01C018
03801C
03801C
03801C
03803C
07003C
07003C
073878
0F78F8
0E70F0
0E63E0
1E3F80
1C0E00
1C0000
3C0000
3C0000
380000
780000
F00000
800000
ENDCHAR

STARTCHAR agrave
ENCODING 224
SWIDTH 574 0
DWIDTH 22 0
BBX 20 28 1 0
BITMAP
006000
007000
007800
003C00
000E00
000700
000180
000000
000000
000000
03F0E0
071DC0
0E05C0
1C06C0
380380
780380
700380
F00700
F00700
E00700
E00700
E00E10
E00E30
E01E20
703660
786EC0
3FCF80
0F0700
ENDCHAR

STARTCHAR aacute
ENCODING 225
SWIDTH 574 0
DWIDTH 22 0
BBX 20 28 1 0
BITMAP
0000C0
0001C0
0003C0
000780
000F00
000C00
003000
000000
000000
000000
03F0E0
071DC0
0E05C0
1C06C0
380380
780380
700380
F00700
F00700
E00700
E00700
E00E10
E00E30
E01E20
703660
786EC0
3FCF80
0F0700
ENDCHAR

STARTCHAR acircumflex
ENCODING 226
SWIDTH 574 0
DWIDTH 22 0
BBX 20 27 1 0
BITMAP
000C00
001E00
003F00
006300
00C180
0300C0
000000
000000
000000
03F0E0
071DC0
0E05C0
1C06C0
380380
780380
700380
F00700
F00700
E00700
E00700
E00E10
E00E30
E01E20
703660
786EC0
3FCF80
0F0700
ENDCHAR

STARTCHAR atilde
ENCODING 227
SWIDTH 574 0
DWIDTH 22 0
BBX 20 27 1 0
BITMAP
007000
00FE20
01FFE0
011FC0
010380
000000
000000
000000
000000
03F0E0
071DC0
0E05C0
1C06C0
380380
780380
700380
F00700
F00700
E00700
E00700
E00E10
E00E30
E01E20
703660
786EC0
3FCF80
0F0700
ENDCHAR

STARTCHAR adieresis
ENCODING 228
SWIDTH 574 0
DWIDTH 22 0
BBX 20 26 1 0
BITMAP
0060C0
00F1E0
00F1E0
0060C0
000000
000000
000000
000000
01F8E0
078CC0
0E06C0
1C02C0
3803C0
780380
700380
F00380
F00300
E00700
E00700
E00710
E00E10
F01E30
701660
7876C0
1FE780
0F8700
ENDCHAR

STARTCHAR aring
ENCODING 229
SWIDTH 574 0
DWIDTH 22 0
BBX 20 28 2 0
BITMAP
000C00
003F00
002100
006180
006180
002100
003F00
000E00
000000
000000
03F1C0
0719C0
1E05C0
1C0780
380380
780380
700780
F00700
F00700
E00700
E00E00
E00E10
E00E30
E01C20
703440
786CC0
3FCF80
0F0600
ENDCHAR

STARTCHAR ae
ENCODING 230
SWIDTH 722 0
DWIDTH 27 0
BBX 27 18 0 0
BITMAP
00E1CF80
07F9F1C0
0E0DA0E0
1C07C0E0
3C07C0E0
380381E0
780781C0
70070780
F0071E00
F007F000
E00F0000
E00E0000
E01E0000
E01F00C0
70370180
70678300
3F83FE00
0E00F000
ENDCHAR

STARTCHAR ccedilla
ENCODING 231
SWIDTH 444 0
DWIDTH 17 0
BBX 14 24 2 -6
BITMAP
01F0
0718
0E0C
1C1C
383C
783C
7000
F000
E000
E000
E000
E000
E000
E018
7030
7860
3FC0
0700
0E00
1F00
0700
0700
0E00
F800
ENDCHAR

STARTCHAR egrave
ENCODING 232
SWIDTH 444 0
DWIDTH 17 0
BBX 15 28 1 0
BITMAP
0180
03C0
01E0
01F0
0070
0018
000C
0002
0000
0000
01F8
071C
0E0E
1C0E
380E
781E
701C
F038
F0E0
FF00
F000
E000
E000
E00C
7018
7830
1FE0
0700
ENDCHAR

STARTCHAR eacute
ENCODING 233
SWIDTH 444 0
DWIDTH 17 0
BBX 16 28 1 0
BITMAP
0002
0007
000F
001E
003C
0070
00C0
0080
0000
0000
01F8
071C
0E0E
1C0E
380E
781E
701C
F038
F0E0
FF00
F000
E000
E000
E00C
7018
7830
1FE0
0700
ENDCHAR

STARTCHAR ecircumflex
ENCODING 234
SWIDTH 444 0
DWIDTH 17 0
BBX 15 27 1 0
BITMAP
0070
00F0
01F8
039C
0604
0C02
0000
0000
0000
01F8
071C
0E0E
1C0E
380E
781E
701C
F038
F0E0
FF00
F000
E000
E000
E00C
7018
7830
1FE0
0700
ENDCHAR

STARTCHAR edieresis
ENCODING 235
SWIDTH 444 0
DWIDTH 17 0
BBX 16 26 1 0
BITMAP
0306
078F
078F
0306
0000
0000
0000
0000
01F8
071C
0E0E
1C0E
380E
781E
781C
7038
F0E0
FF00
F000
E000
E000
E00C
7018
7830
1FE0
0700
ENDCHAR

STARTCHAR igrave
ENCODING 236
SWIDTH 333 0
DWIDTH 13 0
BBX 12 27 3 0
BITMAP
1E00
0F00
0F00
0780
01C0
0060
0010
0000
0000
1E00
FE00
1E00
1C00
1C00
1C00
3800
3800
3800
7000
7000
7080
7180
E100
E300
E600
FC00
7000
ENDCHAR

STARTCHAR iacute
ENCODING 237
SWIDTH 333 0
DWIDTH 13 0
BBX 13 27 3 0
BITMAP
0038
0078
00F0
01E0
0380
0300
0400
0000
0000
1E00
FE00
1E00
1C00
1C00
1C00
3800
3800
3800
7000
7000
7080
7180
E100
E300
E600
FC00
7000
ENDCHAR

STARTCHAR icircumflex
ENCODING 238
SWIDTH 333 0
DWIDTH 13 0
BBX 12 27 3 0
BITMAP
0180
0380
07C0
0EE0
1860
6010
0000
0000
0000
1E00
FE00
1E00
1C00
1C00
1C00
3800
3800
3800
7000
7000
7080
7180
E100
E300
E600
FC00
7000
ENDCHAR

STARTCHAR idieresis
ENCODING 239
SWIDTH 333 0
DWIDTH 13 0
BBX 13 26 3 0
BITMAP
1830
3C78
3C78
1830
0000
0000
0000
0000
1E00
FE00
1C00
1C00
1C00
1800
3800
3800
3800
7000
7000
7080
7180
E100
E200
E600
FC00
7000
ENDCHAR

STARTCHAR gbreve
ENCODING 240
SWIDTH 537 0
DWIDTH 20 0
BBX 23 35 -1 -7
BITMAP
002020
002020
002060
0030E0
003FC0
001F80
000E00
000000
00003C
003F5E
00E1CC
01C0E0
0380E0
0780F0
0700F0
0700F0
0700E0
0701E0
0383C0
01C780
07FE00
0C0000
180000
180000
1FF000
1FFF00
07FF80
1C0FC0
3003C0
6001C0
E001C0
E00380
700300
381E00
0FF000
ENDCHAR

STARTCHAR ntilde
ENCODING 241
SWIDTH 611 0
DWIDTH 23 0
BBX 20 26 2 0
BITMAP
007000
00FE20
01FFE0
011FC0
000380
000000
000000
000000
1F0600
7E1F00
1E7F80
0EC380
0D8380
1D0380
1E0380
1E0700
3C0700
3C0700
380E00
380E00
700E30
701C20
701C60
E01CC0
E00F80
E00E00
ENDCHAR

STARTCHAR ograve
ENCODING 242
SWIDTH 500 0
DWIDTH 19 0
BBX 16 28 1 0
BITMAP
0080
01C0
01E0
00F0
0078
0018
0004
0002
0000
0000
03F0
071C
1E0E
3C06
3807
7807
7007
F007
F007
E00F
E00F
E00E
E01E
E01C
703C
3078
38E0
0FC0
ENDCHAR

STARTCHAR oacute
ENCODING 243
SWIDTH 500 0
DWIDTH 19 0
BBX 16 28 1 0
BITMAP
0003
0007
000F
001E
001C
0030
00E0
0040
0000
0000
03F0
071C
1E0E
3C06
3807
7807
7007
F007
F007
E00F
E00F
E00E
E01E
E01C
703C
3078
38E0
0FC0
ENDCHAR

STARTCHAR ocircumflex
ENCODING 244
SWIDTH 500 0
DWIDTH 19 0
BBX 16 27 1 0
BITMAP
0030
0078
00F8
01CC
0306
0403
0000
0000
0000
03F0
071C
1E0E
3C06
3807
7807
7007
F007
F007
E00F
E00F
E00E
E01E
E01C
703C
3078
38E0
0FC0
ENDCHAR

STARTCHAR otilde
ENCODING 245
SWIDTH 500 0
DWIDTH 19 0
BBX 17 27 1 0
BITMAP
01C000
03F880
07FF80
047F00
040E00
000000
000000
000000
000000
03F000
071C00
1E0E00
3C0600
380700
780700
700700
F00700
F00700
E00F00
E00F00
E00E00
E01E00
E01C00
703C00
307800
38E000
0FC000
ENDCHAR

STARTCHAR odieresis
ENCODING 246
SWIDTH 500 0
DWIDTH 19 0
BBX 17 26 1 0
BITMAP
018300
03C780
03C780
018300
000000
000000
000000
000000
03F800
071C00
0E0E00
1C0600
380700
780700
700700
F00700
F00700
F00700
E00F00
E00E00
E00E00
E01C00
701C00
303800
18F000
0FC000
ENDCHAR

STARTCHAR divide
ENCODING 247
SWIDTH 606 0
DWIDTH 23 0
BBX 21 20 3 3
BITMAP
006000
00F000
00F000
006000
000000
000000
000000
000000
000000
FFFFF8
FFFFF8
000000
000000
000000
000000
000000
006000
00F000
00F000
006000
ENDCHAR

STARTCHAR oslash
ENCODING 248
SWIDTH 500 0
DWIDTH 19 0
BBX 16 18 1 0
BITMAP
03F3
071E
1E0E
3C0E
381B
7837
7067
F0C7
F087
E10F
E20F
E60E
EC1E
F81C
703C
7078
58E0
CFC0
ENDCHAR

STARTCHAR ugrave
ENCODING 249
SWIDTH 611 0
DWIDTH 23 0
BBX 19 27 3 0
BITMAP
00E000
00F000
007800
003C00
000E00
000300
000100
000000
000000
0E0000
FE03C0
1C0380
1C0380
1C0700
180700
380700
380E00
380E00
700E00
701C00
703C00
E01C60
E07840
E0B8C0
E33980
FE3F00
7C0C00
ENDCHAR

STARTCHAR uacute
ENCODING 250
SWIDTH 611 0
DWIDTH 23 0
BBX 19 27 3 0
BITMAP
0001C0
0003C0
000780
000F00
001C00
003000
002000
000000
000000
0E0000
FE03C0
1C0380
1C0380
1C0700
180700
380700
380E00
380E00
700E00
701C00
703C00
E01C60
E07840
E0B8C0
E33980
FE3F00
7C0C00
ENDCHAR

STARTCHAR ucircumflex
ENCODING 251
SWIDTH 611 0
DWIDTH 23 0
BBX 19 27 3 0
BITMAP
001800
003C00
007E00
006600
00C300
030180
000000
000000
000000
0E0000
FE03C0
1C0380
1C0380
1C0700
180700
380700
380E00
380E00
700E00
701C00
703C00
E01C60
E07840
E0B8C0
E33980
FE3F00
7C0C00
ENDCHAR

STARTCHAR udieresis
ENCODING 252
SWIDTH 611 0
DWIDTH 23 0
BBX 19 26 3 0
BITMAP
00C180
01E3C0
01E3C0
00C180
000000
000000
000000
000000
0E0000
FE0380
1C0380
1C0300
1C0700
180700
380700
380E00
380E00
701E00
701C00
703C00
E01C60
E07840
E0B880
E33980
FE3F00
7C1C00
ENDCHAR

STARTCHAR dotlessi
ENCODING 253
SWIDTH 333 0
DWIDTH 13 0
BBX 9 18 3 0
BITMAP
1E00
FE00
1E00
1C00
1C00
1C00
3800
3800
3800
7000
7000
7080
7180
E100
E300
E600
7C00
7000
ENDCHAR

STARTCHAR scedilla
ENCODING 254
SWIDTH 444 0
DWIDTH 17 0
BBX 15 25 1 -7
BITMAP
03F8
071C
0C0E
181E
181E
1C0C
1E00
1F80
0FF0
03F8
00FC
603C
F01C
F01C
E018
6038
30F0
1FC0
0300
0F80
0780
0380
0780
3E00
7800
ENDCHAR

STARTCHAR ydieresis
ENCODING 255
SWIDTH 500 0
DWIDTH 19 0
BBX 20 33 -2 -7
BITMAP
0060C0
00F1E0
00F1E0
0060C0
000000
000000
000000
000000
018020
03C070
07E070
0CE070
08E070
187060
007060
003040
0038C0
003880
003980
003900
001F00
001E00
001C00
001C00
001800
001800
003000
002000
606000
F0C000
F18000
7E0000
380000
ENDCHAR
ENDFONT
